<svg xmlns="http://www.w3.org/2000/svg" xmlns:xlink="http://www.w3.org/1999/xlink" version="1.1" x="0px" y="0px" viewBox="0 0 100 125" style="enable-background:new 0 0 100 100;" xml:space="preserve"><style type="text/css">
	.st0{fill:#38467F;}
	.st1{clip-path:url(#SVGID_2_);}
	.st2{fill:#AEBFD3;}
	.st3{clip-path:url(#SVGID_4_);}
	.st4{fill:#807C7D;}
	.st5{fill:#71818F;}
	.st6{fill:#645F6A;}
	.st7{fill:#74E3C3;}
	.st8{fill:#60B1BB;}
	.st9{fill:#E6E7E9;}
	.st10{fill:#BABBBE;}
	.st11{fill:#8E8D93;}
	.st12{fill:#4D4D4D;}
	.st13{fill:#B8BABE;}
	.st14{fill:#8C8A93;}
	.st15{fill:#615B6A;}
	.st16{fill:#FFDF4E;}
	.st17{fill:#FFB64E;}
	.st18{fill:#FFA14E;}
	.st19{fill:#E5E7E9;}
	.st20{fill:#48A073;}
	.st21{fill:#666666;}
	.st22{fill:#FF6462;}
	.st23{fill:#ED615F;}
	.st24{fill:#62DB90;}
	.st25{fill:#FF7291;}
	.st26{fill:#FF8F9F;}
	.st27{fill:#FFB9B8;}
	.st28{clip-path:url(#SVGID_6_);}
	.st29{opacity:0.35;clip-path:url(#SVGID_6_);}
	.st30{clip-path:url(#SVGID_8_);}
	.st31{clip-path:url(#SVGID_10_);}
	.st32{fill:none;}
	.st33{fill:#8C8B93;}
	.st34{fill:#84D0EE;}
	.st35{fill:#B9BABE;}
	.st36{fill:#FF8E6D;}
	.st37{fill:#615C6A;}
	.st38{fill:#E54B62;}
	.st39{fill:#FFE35E;}
	.st40{fill:#FFBD5E;}
	.st41{fill:#FFAA5E;}
	.st42{fill:#FFD777;}
	.st43{fill:#FFB277;}
	.st44{fill:#E6E9E9;}
	.st45{fill:#BABCBE;}
	.st46{fill:#8C8C93;}
	.st47{fill:#605E6A;}
	.st48{fill:#848484;}
	.st49{fill:#69686A;}
	.st50{fill:#FFCD31;}
	.st51{fill:#FFF8E9;}
	.st52{fill:#FFE2B7;}
	.st53{fill:#A1BFFF;}
	.st54{fill:#67A2DD;}
	.st55{fill:#FF8031;}
	.st56{fill:#D56529;}
	.st57{fill:#257983;}
	.st58{fill:#FFFFFF;}
	.st59{fill:#FCDAAC;}
	.st60{fill:#57949A;}
	.st61{fill:#6A5C67;}
	.st62{fill:#FFCA6D;}
	.st63{fill:#E5844C;}
	.st64{fill:#BBB9BE;}
	.st65{fill:#928B93;}
	.st66{fill:#999999;}
	.st67{fill:#FFDF58;}
	.st68{fill:#FFA358;}
	.st69{fill:#D8DBDE;}
	.st70{fill:#FFB758;}
	.st71{fill:#504F5E;}
	.st72{fill:#BBBDBE;}
	.st73{fill:#E9E9E9;}
	.st74{fill:#598F8F;}
	.st75{fill:#63727F;}
	.st76{fill:#DBDDDE;}
	.st77{fill:#8B8B93;}
	.st78{fill:#5B586A;}
	.st79{fill:#FFCA49;}
	.st80{fill:#FFEAC5;}
	.st81{fill:#76A5A9;}
	.st82{fill:#61C9EE;}
	.st83{fill:#2FA6D7;}
	.st84{fill:#2CE393;}
	.st85{fill:#00E389;}
	.st86{fill:#25BBB5;}
	.st87{fill:#FFF3D4;}
	.st88{fill:#FFDDA1;}
	.st89{fill:#5EBCD3;}
	.st90{fill:#7196F6;}
	.st91{fill:#C9C9C9;}
	.st92{fill:#CE5C87;}
	.st93{fill:#FFDF5E;}
	.st94{fill:#FFB85E;}
	.st95{fill:#262A3E;}
	.st96{fill:#232221;}
	.st97{fill:#2F354E;}
	.st98{fill:#EC9374;}
	.st99{fill:#5F5D6A;}
	.st100{fill:#B9BDBE;}
	.st101{fill:#D9DDDE;}
	.st102{fill:#FFD26D;}
	.st103{fill:#FFA86D;}
	.st104{fill:#FF9635;}
	.st105{fill:#8B8993;}
	.st106{fill:#5F596A;}
	.st107{fill:#D7DADE;}
	.st108{fill:#B8B9BE;}
	.st109{fill:#FFDC35;}
	.st110{fill:#FFAD35;}
	.st111{fill:#FFF1CE;}
	.st112{fill:#FFD99B;}
	.st113{fill:#E7BA94;}
	.st114{fill:#DBAD8B;}
	.st115{fill:#E6E6E7;}
	.st116{fill:#808080;}
	.st117{fill:#A6C56D;}
	.st118{fill:#1C8445;}
	.st119{fill:#166739;}
	.st120{fill:#221F1F;}
	.st121{fill:#E2B471;}
	.st122{fill:#745742;}
	.st123{fill:#D1D3D3;}
	.st124{fill:#F7F7F7;}
	.st125{fill:#664B68;}
	.st126{fill:#4F3E53;}
	.st127{fill:#A29B6D;}
	.st128{fill:#FFD852;}
	.st129{fill:#FDB83E;}
	.st130{fill:#918A63;}
	.st131{fill:#A5A5A2;}
	.st132{fill:#FC695E;}
	.st133{fill:#EF5E5E;}
	.st134{fill:#EFE78F;}
	.st135{fill:#606166;}
	.st136{fill:#FEDAB9;}
	.st137{fill:#333333;}
	.st138{fill:#FCE7D6;}
	.st139{fill:#323855;}
	.st140{fill:#444D72;}
	.st141{fill:#ECF0F1;}
	.st142{fill:#A66B4A;}
	.st143{fill:#99573D;}
	.st144{fill:#FFF9F2;}
	.st145{fill:#FFE2CC;}
	.st146{fill:#352D2A;}
	.st147{fill:#E66557;}
	.st148{fill:#D95040;}
	.st149{fill:#703E2F;}
	.st150{fill:#AF453F;}
	.st151{fill:#F1F9F9;}
	.st152{fill:#8A8A8A;}
	.st153{fill:#E7ECEC;}
	.st154{fill:#394344;}
	.st155{fill:#E9AF49;}
	.st156{fill:#EF547F;}
	.st157{fill:#F26083;}
	.st158{fill:#DFC158;}
	.st159{fill:#706A69;}
	.st160{fill:#E4ECA2;}
	.st161{fill:#BCB2B1;}
	.st162{fill:#8E8B83;}
	.st163{fill:#DDBA32;}
	.st164{fill:#E7CF7C;}
	.st165{fill:#E3E4E5;}
	.st166{fill:#FF9865;}
	.st167{fill:#EF363E;}
	.st168{fill:#948295;}
	.st169{fill:#FCE45D;}
	.st170{fill:#FCE383;}
	.st171{fill:#0072BF;}
	.st172{fill:#FFC99C;}
	.st173{fill:#F1F1F1;}
	.st174{fill:#ECA877;}
	.st175{fill:#002C44;}
	.st176{fill:#4587E5;}
	.st177{fill:#455360;}
	.st178{fill:#F9D45F;}
	.st179{fill:#ADCBEA;}
	.st180{fill:#EFAF3F;}
	.st181{fill:#5C546A;}
	.st182{fill:#888693;}
	.st183{fill:#D5D9DE;}
	.st184{fill:#B6B8BE;}
	.st185{fill:#575461;}
	.st186{fill:#343444;}
	.st187{fill:#F9BE7E;}
	.st188{fill:#3E404B;}
	.st189{fill:#2A2B33;}
	.st190{fill:#ED7A7D;}
	.st191{fill:#19181B;}
	.st192{fill:#737278;}
	.st193{fill:#4B4646;}
	.st194{fill:#131313;}
	.st195{fill:#E8E8EC;}
	.st196{fill:#E5816E;}
	.st197{fill:#994042;}
	.st198{fill:#E37366;}
	.st199{fill:#F3A08A;}
	.st200{fill:#E6816F;}
	.st201{fill:#E47467;}
	.st202{fill:#BD4731;}
	.st203{fill:#E25E46;}
	.st204{fill:#515050;}
	.st205{fill:#383838;}
	.st206{fill:#323C51;}
	.st207{fill:#2B3449;}
	.st208{fill:#F2A57E;}
	.st209{fill:#E5865E;}
	.st210{fill:#EFEFEF;}
	.st211{fill:#EAC541;}
	.st212{fill:#FEE047;}
	.st213{fill:#F3F1F0;}
	.st214{fill:#CFCDCC;}
	.st215{fill:#3C4040;}
	.st216{fill:#4F4F4F;}
	.st217{fill:#C65A47;}
	.st218{fill:#E7726F;}
	.st219{fill:#434C59;}
	.st220{fill:#9AD161;}
	.st221{fill:#8490A0;}
	.st222{fill:#EA5959;}
	.st223{fill:#3E8AF7;}
	.st224{fill:#699635;}
	.st225{fill:#931D2F;}
	.st226{fill:#FA969E;}
	.st227{fill:#F06E79;}
	.st228{fill:#6B1B17;}
	.st229{fill:#EB9D1E;}
	.st230{fill:#FFD173;}
	.st231{fill:#F4BB46;}
	.st232{fill:#782520;}
	.st233{fill:#842820;}
	.st234{fill:#983D32;}
	.st235{fill:#FBA9AF;}
	.st236{fill:#C91F30;}
	.st237{fill:#E02436;}
	.st238{fill:#F46372;}
	.st239{fill:#7BA740;}
	.st240{fill:#A0662F;}
	.st241{fill:#8B542A;}
	.st242{fill:#B77436;}
	.st243{fill:#BE963A;}
	.st244{fill:#A4A4A4;}
	.st245{fill:#B28F6C;}
	.st246{fill:#CACACA;}
	.st247{fill:#F4EAC8;}
	.st248{fill:#5E5C38;}
	.st249{fill:#47452A;}
	.st250{fill:#E0E0D0;}
	.st251{fill:#EEEEE7;}
	.st252{fill:#D4D4D1;}
	.st253{fill:#4A6580;}
	.st254{fill:#384E63;}
	.st255{fill:#6486A9;}
	.st256{fill:#EDB273;}
	.st257{fill:#DB996B;}
	.st258{fill:#F6BF7B;}
	.st259{fill:#C9845C;}
	.st260{fill:#8C6141;}
	.st261{fill:#D49E6C;}
	.st262{fill:#B68052;}
	.st263{fill:#9D693C;}
	.st264{fill:#1E949C;}
	.st265{fill:#7B7D99;}
	.st266{fill:#FFA85A;}
	.st267{fill:#FFA859;}
	.st268{fill:#FFB466;}
	.st269{fill:#135F64;}
	.st270{fill:#FFCFA5;}
	.st271{fill:#F4DDA7;}
	.st272{fill:#FFBB58;}
	.st273{fill:#FFE258;}
	.st274{fill:#FF9571;}
	.st275{fill:#625C6A;}
	.st276{fill:#E54F5C;}
	.st277{fill:#FFD670;}
	.st278{fill:#FFAF70;}
	.st279{fill:#FF9589;}
	.st280{fill:#52BB96;}
	.st281{fill:#708F8F;}
	.st282{fill:#615F6A;}
	.st283{fill:#64E384;}
	.st284{fill:#F0C0AD;}
	.st285{fill:#CCCCCC;}
	.st286{fill:#CCA4B9;}
	.st287{fill:#D2CB9B;}
	.st288{fill:#F9D4C6;}
	.st289{fill:#FF5E62;}
	.st290{fill:#BA585A;}
	.st291{fill:#ED585B;}
	.st292{fill:#43405F;}
	.st293{fill:#393432;}
	.st294{fill:#44415E;}
	.st295{fill:#738481;}
	.st296{fill:#FFF5B4;}
	.st297{fill:#CDC493;}
	.st298{fill:#8F6E59;}
	.st299{fill:#DAB59A;}
</style><g><g><path d="M34.136719,59.820313c0.398926-0.134766,0.814941-0.251953,1.245605-0.351563    c-0.287598-0.220703-0.56543-0.455078-0.832031-0.701172c-1.851074-1.710938-3.128418-3.980469-3.623047-6.426758    c-0.271484-0.020508-0.558594-0.03125-0.857422-0.03125h-8C15.69043,52.30957,10.5,57.5,10.5,63.879883v9.563477    l0.369141,0.106445c4.459473,1.40918,8.897461,2.258789,13.210938,2.53125v-2.411133    c0-6.28418,4.007324-11.839844,9.972168-13.824219L34.136719,59.820313z"/></g></g><g><g><circle cx="42.626465" cy="22.718262" r="8.92627"/></g></g><g><g><path d="M24.656738,49.015625l0.005859,0.000977c0.450195,0.075195,0.916992,0.113281,1.387207,0.113281l0.530273-0.009766    c1.536133-0.086914,3.042969-0.583984,4.347168-1.438477c0.522461-2.651855,1.944336-5.055176,4.02832-6.808105    c0.02002-0.239746,0.024414-0.449219,0.024414-0.663574c0-1.672852-0.468262-3.303223-1.353516-4.714355    c-0.346191-0.566895-0.748535-1.080566-1.199707-1.532227c-1.702637-1.731445-3.966309-2.683594-6.376953-2.683594    c-4.923828,0-8.929688,4.005859-8.929688,8.930176C17.120117,44.563477,20.360352,48.349121,24.656738,49.015625z"/></g></g><g><g><path d="M46.356934,38.67041c0.170898-1.338379,0.564941-2.617188,1.175293-3.816406    c-0.291992-0.022949-0.586914-0.03418-0.882324-0.03418h-8.009766c-0.626953,0-1.254395,0.05127-1.873047,0.152832    c0.625,1.270996,1.017578,2.655273,1.154297,4.068848C40.535645,37.898438,43.603516,37.755371,46.356934,38.67041z"/></g></g><g><g><path d="M33.747559,49.129395C33.719238,49.413086,33.700195,49.706543,33.700195,50v0.169922    c0.009277,0.682617,0.101074,1.361328,0.273438,2.011719c0.777344,3.072266,3.13916,5.517578,6.164551,6.387695    c0.28418,0.084961,0.572754,0.160156,0.86084,0.206055l0.345215,0.061523c0.391602,0.0625,0.806641,0.085938,1.321289,0.092773    c0.094727,0,0.189453,0,0.28418-0.007813c0.165039-0.001953,0.281738-0.009766,0.397461-0.027344    c0.433105-0.02832,0.842285-0.091797,1.286133-0.198242l0.099609-0.024414l0.213379-0.052734l0.00293,0.001953    c3.183105-0.854492,5.673828-3.450195,6.382324-6.678711c0.14502-0.636719,0.218262-1.289551,0.218262-1.942383v-0.169922    c-0.018066-0.964844-0.187012-1.907715-0.500977-2.79248c-0.435547-1.242188-1.162598-2.394531-2.102539-3.333984    l-0.068848-0.068848c-0.679199-0.66748-1.438965-1.210938-2.259277-1.616699    c-1.250488-0.629883-2.59082-0.948242-3.988281-0.948242c-1.8125,0-3.557129,0.543457-5.045898,1.571777    C35.39502,44.13623,33.997559,46.5,33.747559,49.127441V49.129395z"/></g></g><g><g><path d="M70.109863,40.209961c0,0.083984,0,0.166016-0.000977,0.248047c1.134766,0.512207,2.35791,0.771973,3.641113,0.771973    c4.924316,0,8.930176-4.001465,8.930176-8.919922c0-4.924316-4.005859-8.930176-8.930176-8.930176    c-4.231445,0-7.851563,2.947266-8.726074,7.053223C68.214844,32.682129,70.109863,36.312012,70.109863,40.209961z"/></g></g><g><g><path d="M50.803223,35.20166c-0.987305,1.447266-1.519531,3.135254-1.54248,4.888672    c2.818848,1.890625,4.686523,4.856934,5.169922,8.208984c0.900391,0.425781,1.860352,0.688965,2.856445,0.783203    c0.470703,0.045898,0.960938,0.054688,1.445801,0.027832c0.269531-0.009277,0.52002-0.037598,0.760742-0.074707    c0.373535-0.054688,0.751465-0.137207,1.127441-0.246094c2.447266-0.684082,4.486328-2.395996,5.598633-4.697266    c0.318848-0.646973,0.557617-1.347168,0.710449-2.084473l0.052246-0.266602l0.004395,0.000977    c0.084473-0.571289,0.123047-1.047852,0.123047-1.532227c0-0.239746-0.008301-0.48877-0.036621-0.719727    c-0.185547-2.35498-1.268066-4.486328-3.050781-6.032227c-0.574219-0.499512-1.217773-0.92627-1.913574-1.269531    c-1.234375-0.602539-2.553711-0.908691-3.918945-0.908691c-2.256348,0-4.412109,0.847656-6.069336,2.38623    c-0.489746,0.45166-0.932129,0.967285-1.316406,1.534668L50.803223,35.20166z"/></g></g><g><g><path d="M55.327148,66.042969l-0.001953-0.00293c-2.207031-2.503906-5.369141-3.94043-8.675293-3.94043h-8.009766    c-6.374023,0-11.560059,5.19043-11.560059,11.570313v9.567383l0.375488,0.114258    c5.535156,1.737305,11.005859,2.618164,16.264648,2.618164c8.476074,0,13.574707-2.359375,14.128418-2.62793l0.411133-0.222656    v-9.449219c-0.009277-1.943359-0.512695-3.866211-1.456055-5.555664C56.40332,67.387695,55.907227,66.692383,55.327148,66.042969z    "/></g></g><g><g><path d="M77.77002,44.410156h-8c-0.141113,0-0.281738,0.00293-0.422363,0.009277    c-0.794922,2.085449-2.158203,3.910156-3.915527,5.256348c6.525391,1.478516,11.339844,7.374023,11.387695,14.19043v4.365234    c7.695801-0.333008,12.096191-2.5625,12.140625-2.585938l0.419434-0.219727v-9.445313    C89.341797,49.602051,84.133301,44.410156,77.77002,44.410156z"/></g></g><g><g><path d="M62.209961,52.30957H54.32959c-0.52832,2.651367-1.947266,5.057617-4.027344,6.8125    c-0.135742,0.117188-0.274902,0.230469-0.418457,0.341797c0.650391,0.147461,1.285156,0.341797,1.897949,0.580078    c1.51709,0.563477,2.946289,1.40332,4.240723,2.493164c0.800293,0.670898,1.498535,1.394531,2.075195,2.149414    c0.3125,0.382813,0.601563,0.785156,0.874512,1.21582c0.510254,0.801758,0.945313,1.655273,1.29248,2.53418    c0.650879,1.662109,0.985352,3.417969,0.995117,5.220703v2.474609c7.695801-0.333008,12.096191-2.5625,12.140625-2.585938    l0.419434-0.219727v-9.446289C73.782227,57.500977,68.57373,52.30957,62.209961,52.30957z"/></g></g><text x="0" y="115" fill="#000000" font-size="5px" font-weight="bold" font-family="'Helvetica Neue', Helvetica, Arial-Unicode, Arial, Sans-serif">Created by Wawan Hermawan</text><text x="0" y="120" fill="#000000" font-size="5px" font-weight="bold" font-family="'Helvetica Neue', Helvetica, Arial-Unicode, Arial, Sans-serif">from the Noun Project</text></svg>